<?xml version="1.0" encoding="UTF-8"?>
<svg version="1.1" xmlns="http://www.w3.org/2000/svg" width="1024" height="1024">
<path d="M0 0 C0.99 0.33 1.98 0.66 3 1 C5.13434651 1.08777759 7.27142116 1.11321106 9.40756226 1.10679626 C10.06092768 1.10623956 10.71429311 1.10568285 11.38745749 1.10510927 C13.58174739 1.10206814 15.77594689 1.09188067 17.97021484 1.08178711 C19.54247441 1.07823107 21.1147351 1.07514506 22.68699646 1.07249451 C26.07876278 1.06593521 29.47050291 1.05636904 32.8622551 1.04459953 C38.24504775 1.0262811 43.62783406 1.01669819 49.01065063 1.00868225 C64.32028005 0.98455959 79.62987102 0.94898342 94.93945312 0.90405273 C103.39089062 0.87932681 111.84231241 0.86206919 120.29378092 0.85249335 C124.75736947 0.84707254 129.22087507 0.83784405 133.68442917 0.81910515 C182.31261636 0.61940947 182.31261636 0.61940947 197.3125 5.625 C198.12605957 5.88442383 198.93961914 6.14384766 199.77783203 6.41113281 C222.832064 14.07636095 242.343844 28.68179057 257 48 C257.60457031 48.78890625 258.20914062 49.5778125 258.83203125 50.390625 C276.74994375 74.82046507 284.221789 104.01848667 284.25 133.9375 C284.25100708 134.6761026 284.25201416 135.4147052 284.25305176 136.1756897 C284.24298436 147.07852905 283.76009601 157.39791446 281 168 C280.70996094 169.18464844 280.41992188 170.36929688 280.12109375 171.58984375 C271.29113557 205.02545947 250.99190913 234.65140491 221.21337891 252.68017578 C204.74890666 262.17560258 185.05366954 268.87700157 165.9375 269.25 C165.14214844 269.27578125 164.34679687 269.3015625 163.52734375 269.328125 C158.94137765 268.73272909 155.86228885 266.90314179 152.69140625 263.58203125 C151.98886719 262.66808594 151.28632812 261.75414062 150.5625 260.8125 C149.78648437 259.82894531 149.01046875 258.84539062 148.2109375 257.83203125 C147.11652344 256.43017578 147.11652344 256.43017578 146 255 C125.09163674 229.17482986 93.66344412 213.47289345 60.82714844 209.75390625 C26.21105535 206.31492184 -8.9350807 214.43789566 -36.1953125 236.5546875 C-38 238 -38 238 -41 240 C-40.42770367 245.19228855 -37.9017839 249.3103703 -35.4375 253.8125 C-35.01275391 254.60076172 -34.58800781 255.38902344 -34.15039062 256.20117188 C-33.10603446 258.1373378 -32.0557923 260.07005367 -31 262 C-30.55035889 261.55503174 -30.10071777 261.11006348 -29.63745117 260.65161133 C-23.05547061 254.26394001 -15.05585992 250.21399434 -7 246 C-5.55560547 245.23623047 -5.55560547 245.23623047 -4.08203125 244.45703125 C21.97009703 231.64773974 55.92299822 231.83252043 83 241 C98.25667073 246.54243316 111.34883557 254.65383987 123 266 C124.06154297 266.98613281 124.06154297 266.98613281 125.14453125 267.9921875 C130.2244929 272.82932116 134.20355665 278.11359541 138 284 C138.44859375 284.68835938 138.8971875 285.37671875 139.359375 286.0859375 C140.5 287.9375 140.5 287.9375 142 291 C140.68085769 294.95742693 138.1820651 296.24942013 134.875 298.5 C133.6086453 299.38176546 132.3430479 300.2646193 131.078125 301.1484375 C130.41490234 301.60959961 129.75167969 302.07076172 129.06835938 302.54589844 C125.54905072 305.02004885 122.08823036 307.57323383 118.625 310.125 C117.96483887 310.61033203 117.30467773 311.09566406 116.62451172 311.59570312 C115.08238962 312.7296285 113.5410971 313.86468197 112 315 C111.34 314.67 110.68 314.34 110 314 C110 313.34 110 312.68 110 312 C109.34 312 108.68 312 108 312 C107.525625 311.05125 107.05125 310.1025 106.5625 309.125 C97.07399793 292.66941598 79.51280505 280.90531028 61.5625 275.5625 C56.70760393 274.33114647 52.00772161 273.21772703 47 273 C45.9996875 272.9484375 44.999375 272.896875 43.96875 272.84375 C21.53988316 272.23756441 2.20936679 279.84080083 -15 294 C-13.44347945 299.3537465 -11.0182491 304.00150947 -8.375 308.875 C-7.95476562 309.65875 -7.53453125 310.4425 -7.1015625 311.25 C-6.0718978 313.16892057 -5.03652433 315.08477603 -4 317 C-3.05253906 316.14728516 -3.05253906 316.14728516 -2.0859375 315.27734375 C9.71912739 305.08824596 24.41729685 296.98707938 40.51171875 297.72265625 C57.85681786 299.65594045 70.7712528 305.61273201 83 318 C83.66 318.66 84.32 319.32 85 320 C85.90026985 321.35858905 86.77332804 322.73542997 87.625 324.125 C88.07101562 324.84945313 88.51703125 325.57390625 88.9765625 326.3203125 C89.31429687 326.87460937 89.65203125 327.42890625 90 328 C86.39323589 332.23794783 82.71068717 336.40492394 78.875 340.4375 C78.25367188 341.09621094 77.63234375 341.75492188 76.9921875 342.43359375 C74.56237575 344.3440928 73.08785747 344.87251965 70 345 C67.640625 343.890625 67.640625 343.890625 65.25 342.25 C56.47400823 336.66763837 48.61018327 334.69165904 38.2734375 336.46875 C28.37394682 338.8111647 19.28071994 343.86069966 13 352 C8.22108848 359.88012005 5.63475996 367.60009994 5.8125 376.875 C5.82108032 377.92119507 5.82108032 377.92119507 5.82983398 378.98852539 C5.90104752 384.05410329 6.38340153 388.97912678 7 394 C5.40926322 395.59073678 3.76709381 395.13261124 1.56100464 395.14044189 C0.12267525 395.14900711 0.12267525 395.14900711 -1.3447113 395.15774536 C-2.93582481 395.15942215 -2.93582481 395.15942215 -4.55908203 395.16113281 C-5.66964462 395.16609772 -6.78020721 395.17106262 -7.92442322 395.17617798 C-11.6188925 395.19084848 -15.3133188 395.19761093 -19.0078125 395.203125 C-21.56794232 395.20887395 -24.12807212 395.21463171 -26.6882019 395.22039795 C-31.37837615 395.22957564 -36.06853312 395.23586924 -40.7587148 395.2388947 C-47.65526308 395.24336776 -54.5516124 395.26087565 -61.44810021 395.2898953 C-67.42336902 395.31416288 -73.39854416 395.32184144 -79.37386703 395.32357025 C-81.91356359 395.32659729 -84.4532593 395.33462752 -86.99292374 395.34775543 C-90.55028528 395.3648259 -94.1071648 395.36293249 -97.66455078 395.35644531 C-98.71314774 395.3656601 -99.76174469 395.37487488 -100.84211731 395.3843689 C-106.63529873 395.35130583 -110.94433534 394.94765129 -116 392 C-118.28355012 385.88487879 -115.92539508 380.80800059 -113.6875 375.0390625 C-113.3276149 374.07360001 -112.9677298 373.10813751 -112.59693909 372.11341858 C-111.4123258 368.94500843 -110.20608382 365.78529221 -109 362.625 C-108.16491311 360.40142481 -107.33151844 358.17721341 -106.49975586 355.95239258 C-104.80965309 351.43563836 -103.11247709 346.9216466 -101.40966797 342.40966797 C-98.36626412 334.33238262 -95.40044401 326.22748243 -92.44747925 318.11679077 C-91.24889461 314.82664515 -90.04575339 311.53817287 -88.84272766 308.24964905 C-85.26422433 298.46701898 -81.69249466 288.68191211 -78.12043762 278.89692688 C-76.08474226 273.3211213 -74.04767704 267.74582332 -72.00756836 262.17163086 C-71.20945466 259.99072924 -70.41135881 257.80982109 -69.61328125 255.62890625 C-69.2229924 254.56246384 -68.83270355 253.49602142 -68.43058777 252.39726257 C-66.22453073 246.36452208 -64.03080445 240.32753135 -61.85115051 234.28520203 C-60.57701484 230.75607681 -59.29608952 227.22943942 -58.01394653 223.70321655 C-57.43027367 222.09246059 -56.84982466 220.48053205 -56.2729187 218.86734009 C-48.66548447 197.60182884 -48.66548447 197.60182884 -38.375 192 C-37.63572266 191.58339111 -36.89644531 191.16678223 -36.13476562 190.73754883 C3.49625766 168.95792633 53.90086335 162.85393802 97.56396484 175.00244141 C105.04370844 177.18575646 112.2778668 179.83561817 119.5 182.75 C126.27499664 185.48333288 132.66738568 187.38802157 140 188 C140.71542969 188.08121094 141.43085937 188.16242188 142.16796875 188.24609375 C155.56688536 189.0756702 169.37944681 183.31860915 179.4921875 174.93359375 C191.0963588 164.01316992 197.3912602 150.55983158 198.09375 134.6484375 C197.75402443 121.42745081 193.71807653 109.36355452 184.68359375 99.5546875 C177.13508307 92.58413704 166.42919097 86.89085561 155.96101475 86.86692142 C155.16191986 86.86268038 154.36282497 86.85843933 153.53951508 86.85406977 C152.23140371 86.85464897 152.23140371 86.85464897 150.89686584 86.85523987 C149.96592604 86.85171302 149.03498623 86.84818618 148.07583612 86.84455246 C144.94907129 86.8338578 141.82233692 86.83018316 138.69555664 86.82641602 C136.45680106 86.82011142 134.21804673 86.81334573 131.97929382 86.80615234 C127.15461043 86.79147723 122.3299319 86.77975467 117.50523567 86.77020454 C109.87939804 86.75476662 102.25360208 86.73081839 94.62779236 86.70530701 C83.93879796 86.67019101 73.24980105 86.63709526 62.56079102 86.60717773 C61.5433611 86.604327 61.5433611 86.604327 60.50537705 86.60141867 C50.87828169 86.57458325 41.25118123 86.55070885 31.62407529 86.52803367 C30.60710016 86.52563771 30.60710016 86.52563771 29.56958008 86.52319336 C28.55384446 86.52080316 28.55384446 86.52080316 27.51758892 86.51836468 C16.22745808 86.4915989 4.93736588 86.45708665 -6.35272509 86.41653961 C-13.93648066 86.38973392 -21.52018914 86.37184932 -29.10398281 86.36050236 C-33.81872082 86.35138932 -38.5334015 86.33403383 -43.248106 86.31432343 C-45.43746542 86.30683769 -47.62683953 86.30276625 -49.8162117 86.30232811 C-52.80088277 86.30124833 -55.78526104 86.28802504 -58.7698822 86.27174377 C-59.63972573 86.27436063 -60.50956925 86.27697748 -61.40577167 86.27967364 C-65.64735782 86.24343857 -69.2249017 86.1819529 -73 84 C-74.90748131 78.88703586 -73.24454679 74.79154369 -71.3515625 69.9453125 C-71.06355774 69.1747049 -70.77555298 68.40409729 -70.4788208 67.61013794 C-69.54081849 65.10985411 -68.58318675 62.61760981 -67.625 60.125 C-66.97542368 58.40511342 -66.32715459 56.68473257 -65.68017578 54.96386719 C-64.39375799 51.5482604 -63.0998838 48.1356433 -61.79882812 44.72558594 C-60.24838664 40.65970722 -58.7197499 36.58642597 -57.203125 32.5078125 C-55.15377999 26.99808454 -53.10350376 21.48932526 -51 16 C-50.65243652 15.08806885 -50.30487305 14.1761377 -49.94677734 13.23657227 C-49.59824707 12.33994873 -49.2497168 11.4433252 -48.890625 10.51953125 C-48.57899414 9.71362549 -48.26736328 8.90771973 -47.94628906 8.07739258 C-46.49186612 4.88449145 -45.14077634 3.57038817 -42 2 C-33.47295401 0.39126784 -24.5780645 0.91635272 -15.9375 1 C-13.1341191 1.02653341 -10.33080206 1.04648717 -7.52734375 1.0625 C-5.68257446 1.07990234 -5.68257446 1.07990234 -3.80053711 1.09765625 C-1.09468797 1.32203299 -1.09468797 1.32203299 0 0 Z " fill="#0461FE" transform="translate(525,273)"/>
<path d="M0 0 C2.10739228 0.02862155 4.21486967 0.05159846 6.3223877 0.06860352 C29.12736318 0.28069202 45.25754312 5.49974838 61.56573486 21.85583496 C73.56573486 34.30489941 73.56573486 34.30489941 73.56573486 39.85583496 C74.22573486 40.18583496 74.88573486 40.51583496 75.56573486 40.85583496 C76.49200439 42.45959473 76.49200439 42.45959473 77.44854736 44.54724121 C77.81206299 45.32905762 78.17557861 46.11087402 78.55010986 46.91638184 C78.92651611 47.74202637 79.30292236 48.5676709 79.69073486 49.41833496 C82.80860971 56.19459216 86.0634652 62.88701974 89.41282654 69.5509491 C91.80129231 74.30968142 94.15068754 79.08554318 96.46807861 83.87927246 C96.79328995 84.55186096 97.11850128 85.22444946 97.4535675 85.91741943 C98.1245402 87.30590736 98.7953189 88.69448904 99.46591187 90.0831604 C104.39727336 100.29305612 109.35782921 110.48598078 114.44854736 120.61755371 C114.84334793 121.40362 115.2381485 122.18968628 115.64491272 122.99957275 C117.55143555 126.79203778 119.46401642 130.58132214 121.3838501 134.36706543 C122.07084935 135.7291726 122.75778332 137.0913127 123.44464111 138.45349121 C123.76252594 139.07576096 124.08041077 139.6980307 124.40792847 140.3391571 C126.56573486 144.62959258 126.56573486 144.62959258 126.56573486 146.85583496 C127.22573486 147.18583496 127.88573486 147.51583496 128.56573486 147.85583496 C129.31964111 149.50817871 129.31964111 149.50817871 130.12823486 151.79333496 C132.43661334 157.89027354 135.4184017 163.59969087 138.4800415 169.3458252 C141.9987491 176.14253738 143.29741733 180.97750607 141.09698486 188.51599121 C140.27759492 190.9745106 139.43837059 193.41648178 138.56573486 195.85583496 C138.30937256 196.57487 138.05301025 197.29390503 137.78887939 198.034729 C135.5979623 204.13963493 133.33311176 210.21651261 131.06573486 216.29333496 C130.32327594 218.29116938 129.58117847 220.28913816 128.8394165 222.28723145 C127.25511346 226.55384258 125.66898583 230.81976973 124.08184814 235.08532715 C121.47252623 242.10189874 118.8757241 249.12307247 116.28057861 256.14489746 C114.95331951 259.73477065 113.6259833 263.32461532 112.29864502 266.91445923 C111.44803169 269.21523122 110.59760261 271.51607134 109.74737549 273.81698608 C107.03062465 281.16718194 104.30547486 288.51417519 101.56573486 295.85583496 C101.18507874 296.87618835 100.80442261 297.89654175 100.41223145 298.94781494 C99.31323707 301.88642905 98.20826336 304.82271284 97.10089111 307.75817871 C96.77237656 308.63688126 96.443862 309.5155838 96.10539246 310.4209137 C95.79976883 311.22693527 95.4941452 312.03295685 95.17926025 312.86340332 C94.91464493 313.5655748 94.6500296 314.26774628 94.37739563 314.99119568 C93.56573486 316.85583496 93.56573486 316.85583496 91.56573486 319.85583496 C89.37823486 319.85583496 89.37823486 319.85583496 86.56573486 318.85583496 C81.38452594 311.43336753 77.54950674 303.17903954 73.49884033 295.10290527 C72.58790014 293.2905188 71.66680551 291.48324731 70.74542236 289.67614746 C70.20643311 288.60638672 69.66744385 287.53662598 69.11212158 286.43444824 C67.67363771 283.6184513 67.67363771 283.6184513 64.56573486 281.85583496 C64.19435553 279.86254911 63.86617472 277.86103994 63.56573486 275.85583496 C62.37992089 273.01137067 62.37992089 273.01137067 60.81964111 270.15661621 C59.94722778 268.49106689 59.94722778 268.49106689 59.05718994 266.79187012 C58.41426915 265.58399087 57.77128228 264.3761468 57.12823486 263.16833496 C56.46412337 261.9062988 55.80097705 260.64375434 55.13873291 259.3807373 C54.08254463 257.36650399 53.02577894 255.35259882 51.96607971 253.34020996 C49.17979088 248.04579744 46.43472379 242.73108628 43.70635986 237.40661621 C43.10168129 236.22688988 43.10168129 236.22688988 42.48478699 235.02333069 C40.89082853 231.91227231 39.29770415 228.80078862 37.70565796 225.68875122 C36.59410547 223.5171133 35.48049524 221.34654135 34.36651611 219.17614746 C34.04100769 218.53869095 33.71549927 217.90123444 33.38012695 217.24446106 C31.77397563 214.1182485 30.1091289 211.05389445 28.32818604 208.02331543 C26.56573486 204.85583496 26.56573486 204.85583496 26.56573486 202.85583496 C25.90573486 202.52583496 25.24573486 202.19583496 24.56573486 201.85583496 C23.67120361 200.29968262 23.67120361 200.29968262 22.75323486 198.26989746 C22.40518799 197.51370117 22.05714111 196.75750488 21.69854736 195.97839355 C21.32471924 195.15419922 20.95089111 194.33000488 20.56573486 193.48083496 C17.39519298 186.63852582 14.10066787 179.8925053 10.56573486 173.23083496 C10.15468506 172.45570557 9.74363525 171.68057617 9.32012939 170.88195801 C7.63669586 167.71851406 5.94401654 164.56010066 4.24835205 161.40319824 C3.38526974 159.79589166 2.52356872 158.18784245 1.66339111 156.57897949 C0.86526153 155.08694892 0.06334399 153.5969367 -0.74285889 152.10925293 C-3.43426514 147.07999334 -3.43426514 147.07999334 -3.43426514 144.85583496 C-4.75426514 145.18583496 -6.07426514 145.51583496 -7.43426514 145.85583496 C-7.43426514 145.19583496 -7.43426514 144.53583496 -7.43426514 143.85583496 C-6.77426514 143.52583496 -6.11426514 143.19583496 -5.43426514 142.85583496 C-5.75701416 142.21557373 -6.07976318 141.5753125 -6.41229248 140.91564941 C-7.88007083 138.00094034 -9.34469618 135.0846579 -10.80926514 132.16833496 C-11.31715576 131.16093262 -11.82504639 130.15353027 -12.34832764 129.11560059 C-12.83817139 128.13913574 -13.32801514 127.1626709 -13.83270264 126.15661621 C-14.28306885 125.26112061 -14.73343506 124.365625 -15.19744873 123.44299316 C-16.43426514 120.85583496 -16.43426514 120.85583496 -17.47186279 118.08703613 C-18.21963964 115.69474859 -18.21963964 115.69474859 -20.43426514 114.85583496 C-21.42401123 113.10925293 -21.42401123 113.10925293 -22.45770264 110.84802246 C-22.83926514 110.02560059 -23.22082764 109.20317871 -23.61395264 108.35583496 C-24.00840576 107.48958496 -24.40285889 106.62333496 -24.80926514 105.73083496 C-28.03136601 98.67709605 -28.03136601 98.67709605 -31.72332764 91.86364746 C-33.43426514 88.85583496 -33.43426514 88.85583496 -33.43426514 86.85583496 C-34.42426514 86.36083496 -34.42426514 86.36083496 -35.43426514 85.85583496 C-36.36053467 84.23620605 -36.36053467 84.23620605 -37.31707764 82.12927246 C-37.67616211 81.35108154 -38.03524658 80.57289063 -38.4052124 79.77111816 C-38.7860498 78.93282471 -39.16688721 78.09453125 -39.55926514 77.23083496 C-43.55477238 68.59860666 -47.86027199 60.19371348 -52.43426514 51.85583496 C-53.09426514 51.85583496 -53.75426514 51.85583496 -54.43426514 51.85583496 C-55.43426514 48.85583496 -55.43426514 48.85583496 -55.43426514 44.85583496 C-56.50267662 42.45065865 -56.50267662 42.45065865 -57.93426514 40.10583496 C-58.63035889 38.90700684 -58.63035889 38.90700684 -59.34051514 37.68395996 C-59.70145264 37.08067871 -60.06239014 36.47739746 -60.43426514 35.85583496 C-61.09426514 35.85583496 -61.75426514 35.85583496 -62.43426514 35.85583496 C-62.49485107 35.07208496 -62.55543701 34.28833496 -62.61785889 33.48083496 C-63.95051045 27.56360696 -67.06600906 22.51044377 -69.92840576 17.19958496 C-74.3698439 8.68843078 -74.3698439 8.68843078 -73.43426514 3.85583496 C-72.14559937 2.22369385 -72.14559937 2.22369385 -70.43426514 0.85583496 C-67.41971463 0.50734518 -64.60408033 0.34277579 -61.58270264 0.30895996 C-60.67616943 0.28804794 -59.76963623 0.26713593 -58.83563232 0.24559021 C-55.82689219 0.18223611 -52.81844114 0.14256105 -49.80926514 0.10583496 C-48.77859924 0.0893692 -47.74793335 0.07290344 -46.68603516 0.05593872 C-31.12504851 -0.19159588 -15.56147333 -0.21833065 0 0 Z " fill="#061D4A" transform="translate(319.43426513671875,273.1441650390625)"/>
<path d="M0 0 C0.33 0.66 0.66 1.32 1 2 C1.825 2.061875 2.65 2.12375 3.5 2.1875 C9.23374871 3.51854881 13.86978001 7.20044859 17.4296875 11.87890625 C21.2161327 18.27716949 21.83259083 24.70030828 21 32 C18.69908565 39.41883599 14.37158057 44.65516474 8 49 C2.21634129 51.89182935 -4.53506892 52.14138906 -10.65625 50.125 C-17.86903463 46.82276126 -21.90729999 42.55759001 -25.875 35.8125 C-28.02836727 28.51497758 -28.1350428 21.62160355 -24.9375 14.625 C-20.87535455 7.53615794 -15.9646667 3.79643551 -8.15625 1.5234375 C-5.45302139 0.86721896 -2.75920567 0.35374432 0 0 Z " fill="#0462FE" transform="translate(574,624)"/>
<path d="M0 0 C-0.81621826 0.42297363 -0.81621826 0.42297363 -1.64892578 0.85449219 C-4.14282028 2.14942954 -6.63391439 3.44966792 -9.125 4.75 C-9.9809375 5.1934375 -10.836875 5.636875 -11.71875 6.09375 C-15.42253468 8.0311143 -19.04783041 9.95371713 -22.4921875 12.328125 C-25 14 -25 14 -27 14 C-27.28359375 14.86882812 -27.5671875 15.73765625 -27.859375 16.6328125 C-28.91519697 19.74965682 -30.05548613 22.80908105 -31.25 25.875 C-35.3940596 36.60580536 -39.4892802 47.31332951 -43.0625 58.25 C-45.00791202 64.19938502 -47.17479111 69.94891498 -49.65625 75.69921875 C-52.42915884 82.51057913 -54.72727844 89.50489139 -57.12255859 96.45605469 C-58.48708121 100.41218313 -59.86536638 104.36337199 -61.25 108.3125 C-61.48388428 108.98692139 -61.71776855 109.66134277 -61.95874023 110.35620117 C-63.04721067 113.46027099 -64.21182685 116.49080501 -65.515625 119.51171875 C-67.05443673 123.12792631 -68.29465203 126.76033065 -69.5 130.5 C-71.48861754 136.66981338 -73.87009187 142.4577067 -76.5 148.375 C-77.56551925 150.95000484 -78.49909474 153.43086611 -79.35546875 156.0703125 C-81.06653309 161.25411 -82.93267619 166.37544277 -84.8125 171.5 C-85.51869546 173.43733009 -86.22441914 175.37483221 -86.9296875 177.3125 C-87.45127441 178.74529297 -87.45127441 178.74529297 -87.98339844 180.20703125 C-88.31887695 181.12871094 -88.65435547 182.05039062 -89 183 C-89.30969727 183.84949219 -89.61939453 184.69898438 -89.93847656 185.57421875 C-90.77700425 187.88086633 -91.6083913 190.18995297 -92.4375 192.5 C-92.68411377 193.17482422 -92.93072754 193.84964844 -93.18481445 194.54492188 C-94.54010277 198.34416482 -95.46324462 202.00209789 -96 206 C-93.08071078 206.97309641 -91.23449736 207.12350964 -88.19746399 207.12025452 C-87.20888397 207.12162918 -86.22030396 207.12300385 -85.20176697 207.12442017 C-84.11851639 207.12082489 -83.03526581 207.11722961 -81.91918945 207.11352539 C-80.77758362 207.11367142 -79.63597778 207.11381744 -78.45977783 207.1139679 C-74.67759313 207.11326993 -70.89545737 207.10548291 -67.11328125 207.09765625 C-64.4944003 207.09579166 -61.875519 207.09436795 -59.25663757 207.09336853 C-53.06247633 207.09025953 -46.86833273 207.08205194 -40.67417926 207.07201904 C-33.62225115 207.06084454 -26.5703222 207.05534408 -19.51838744 207.05032361 C-5.01224919 207.03986898 9.49387516 207.02227786 24 207 C24.33 205.68 24.66 204.36 25 203 C26 204 26 204 26.125 206.5 C26 209 26 209 25 210 C23.52312548 210.10218642 22.0414008 210.13518713 20.56100464 210.14044189 C19.60211838 210.14615204 18.64323212 210.15186218 17.6552887 210.15774536 C16.06417519 210.15942215 16.06417519 210.15942215 14.44091797 210.16113281 C12.77507408 210.16858017 12.77507408 210.16858017 11.07557678 210.17617798 C7.3811075 210.19084848 3.6866812 210.19761093 -0.0078125 210.203125 C-2.56794232 210.20887395 -5.12807212 210.21463171 -7.6882019 210.22039795 C-12.37837615 210.22957564 -17.06853312 210.23586924 -21.7587148 210.2388947 C-28.65526308 210.24336776 -35.5516124 210.26087565 -42.44810021 210.2898953 C-48.42336902 210.31416288 -54.39854416 210.32184144 -60.37386703 210.32357025 C-62.91356359 210.32659729 -65.4532593 210.33462752 -67.99292374 210.34775543 C-71.55028528 210.3648259 -75.1071648 210.36293249 -78.66455078 210.35644531 C-79.71314774 210.3656601 -80.76174469 210.37487488 -81.84211731 210.3843689 C-87.63529873 210.35130583 -91.94433534 209.94765129 -97 207 C-99.28355012 200.88487879 -96.92539508 195.80800059 -94.6875 190.0390625 C-94.3276149 189.07360001 -93.9677298 188.10813751 -93.59693909 187.11341858 C-92.4123258 183.94500843 -91.20608382 180.78529221 -90 177.625 C-89.16491311 175.40142481 -88.33151844 173.17721341 -87.49975586 170.95239258 C-85.80965309 166.43563836 -84.11247709 161.9216466 -82.40966797 157.40966797 C-79.36626412 149.33238262 -76.40044401 141.22748243 -73.44747925 133.11679077 C-72.24889461 129.82664515 -71.04575339 126.53817287 -69.84272766 123.24964905 C-66.26422433 113.46701898 -62.69249466 103.68191211 -59.12043762 93.89692688 C-57.08474226 88.3211213 -55.04767704 82.74582332 -53.00756836 77.17163086 C-52.20945466 74.99072924 -51.41135881 72.80982109 -50.61328125 70.62890625 C-50.2229924 69.56246384 -49.83270355 68.49602142 -49.43058777 67.39726257 C-47.22453073 61.36452208 -45.03080445 55.32753135 -42.85115051 49.28520203 C-41.57701484 45.75607681 -40.29608952 42.22943942 -39.01394653 38.70321655 C-38.43027367 37.09246059 -37.84982466 35.48053205 -37.2729187 33.86734009 C-29.6747399 12.62770108 -29.6747399 12.62770108 -18.625 6.6875 C-17.89539063 6.27177734 -17.16578125 5.85605469 -16.4140625 5.42773438 C-4.23549998 -1.41183333 -4.23549998 -1.41183333 0 0 Z " fill="#0A43E7" transform="translate(506,458)"/>
<path d="M0 0 C-2.64193528 1.47948376 -4.43601904 2.06228843 -7.5 2.5 C-10.97136132 3.59832419 -10.97136132 3.59832419 -12.09375 5.71875 C-13.17726549 8.44622003 -14.0797993 11.21291729 -15 14 C-16.09551858 16.88662717 -17.2393713 19.75396016 -18.375 22.625 C-20.82128702 28.90712722 -23.2348509 35.20098102 -25.57836914 41.5222168 C-27.12918437 45.70269755 -28.72156786 49.86463869 -30.33984375 54.01953125 C-30.74799316 55.07897949 -31.15614258 56.13842773 -31.57666016 57.22998047 C-32.38173995 59.31949812 -33.19482896 61.40595304 -34.01708984 63.48876953 C-34.38914551 64.46056152 -34.76120117 65.43235352 -35.14453125 66.43359375 C-35.47815674 67.29009521 -35.81178223 68.14659668 -36.15551758 69.02905273 C-36.90252687 71.65708281 -37.27245463 73.98139276 -37.55278015 76.6856842 C-37.63797252 77.49418855 -37.72316488 78.30269289 -37.81093884 79.13569736 C-37.87332902 79.75091723 -37.9357192 80.3661371 -38 81 C-36.82109412 81.00331015 -35.64218824 81.00662029 -34.42755795 81.01003075 C-6.43684369 81.08906436 21.55382372 81.17829034 49.54446486 81.28005161 C52.99033633 81.29257034 56.43620811 81.30500314 59.88208008 81.31738281 C60.91108791 81.3210818 60.91108791 81.3210818 61.96088379 81.32485552 C73.06563405 81.36456906 84.17039447 81.39732261 95.27517427 81.42749982 C106.67141458 81.45862415 118.06760679 81.49738513 129.46380085 81.54279006 C135.86414101 81.56804853 142.26445071 81.58983184 148.66482735 81.60334396 C154.68857701 81.61617007 160.71222214 81.63823071 166.73591423 81.66738319 C168.94700364 81.67645461 171.15810987 81.68214819 173.36921692 81.68421364 C176.38843964 81.68753918 179.40736655 81.70302494 182.42652893 81.7215271 C183.30105715 81.71959237 184.17558537 81.71765763 185.07661444 81.71566427 C190.09327609 81.76161079 194.24186981 82.38874294 199 84 C199 84.33 199 84.66 199 85 C169.27485145 84.91809763 139.54974724 84.82608792 109.8246754 84.71994839 C106.31614129 84.70742937 102.80760687 84.69499662 99.29907227 84.68261719 C98.60057996 84.68015119 97.90208766 84.6776852 97.18242892 84.67514448 C85.86939848 84.63541013 74.55635804 84.60266579 63.24329851 84.57250018 C51.6368865 84.54139695 40.03051879 84.50264427 28.42415398 84.45720994 C21.90427 84.43193027 15.38441614 84.41015327 8.86449623 84.39665604 C2.73076955 84.38384909 -3.4028539 84.36180932 -9.53652382 84.33261681 C-11.79037995 84.32353036 -14.04425271 84.31784832 -16.29812622 84.31578636 C-19.37059622 84.31247141 -22.44277219 84.29701447 -25.5151825 84.2784729 C-26.41110019 84.28040763 -27.30701788 84.28234237 -28.2300846 84.28433573 C-36.20187513 84.21220445 -36.20187513 84.21220445 -40 82 C-41.90748131 76.88703586 -40.24454679 72.79154369 -38.3515625 67.9453125 C-38.06355774 67.1747049 -37.77555298 66.40409729 -37.4788208 65.61013794 C-36.54081849 63.10985411 -35.58318675 60.61760981 -34.625 58.125 C-33.97542368 56.40511342 -33.32715459 54.68473257 -32.68017578 52.96386719 C-31.39375799 49.5482604 -30.0998838 46.1356433 -28.79882812 42.72558594 C-27.24838664 38.65970722 -25.7197499 34.58642597 -24.203125 30.5078125 C-22.1537677 24.99805147 -20.1006518 19.49043929 -18 14 C-17.48518066 12.63210327 -17.48518066 12.63210327 -16.95996094 11.23657227 C-16.61481445 10.33994873 -16.26966797 9.4433252 -15.9140625 8.51953125 C-15.60678223 7.71362549 -15.29950195 6.90771973 -14.98291016 6.07739258 C-13.23888915 2.39138296 -10.68219945 0.68339353 -7 -0.8125 C-4.50443495 -1.04645922 -2.4202804 -0.6050701 0 0 Z " fill="#0A54F4" transform="translate(492,275)"/>
<path d="M0 0 C2.44975278 3.67462917 2.27076016 5.53098356 2.30078125 9.9140625 C2.3063353 10.59666641 2.31188934 11.27927032 2.31761169 11.9825592 C2.32942937 14.19692228 2.32311887 16.41063678 2.3125 18.625 C2.31100952 19.37609039 2.30951904 20.12718079 2.3079834 20.90103149 C2.26854769 31.88461118 1.78000997 42.32142093 -1 53 C-1.29003906 54.18464844 -1.58007812 55.36929688 -1.87890625 56.58984375 C-10.70886443 90.02545947 -31.00809087 119.65140491 -60.78662109 137.68017578 C-77.25109334 147.17560258 -96.94633046 153.87700157 -116.0625 154.25 C-117.25552734 154.28867187 -117.25552734 154.28867187 -118.47265625 154.328125 C-123.05862235 153.73272909 -126.13771115 151.90314179 -129.30859375 148.58203125 C-130.01113281 147.66808594 -130.71367188 146.75414062 -131.4375 145.8125 C-132.60152344 144.33716797 -132.60152344 144.33716797 -133.7890625 142.83203125 C-134.51867187 141.89746094 -135.24828125 140.96289062 -136 140 C-151.74059477 120.55784984 -172.73133049 107.6401798 -196.40234375 100.0078125 C-199 99 -199 99 -200 97 C-171.43426924 102.01153171 -144.77103924 122.12123546 -128.12109375 145.28515625 C-125.60355609 148.507419 -123.82867552 150.71175115 -119.6953125 151.36328125 C-95.15653263 150.87847253 -72.27632421 143.35075571 -52.5390625 128.78515625 C-50 127 -50 127 -47 126 C-47 125.34 -47 124.68 -47 124 C-41.52380952 119 -41.52380952 119 -39 119 C-38.76410156 118.44054687 -38.52820313 117.88109375 -38.28515625 117.3046875 C-36.69762596 114.45774868 -34.70869575 112.46372739 -32.4375 110.125 C-18.93782617 95.68559969 -9.85579617 77.04165784 -5 58 C-4.80921875 57.28972656 -4.6184375 56.57945312 -4.421875 55.84765625 C0.31742939 37.62695219 -0.17286757 18.698012 0 0 Z " fill="#0945F0" transform="translate(807,388)"/>
<path d="M0 0 C0.33 0.66 0.66 1.32 1 2 C1.825 2.061875 2.65 2.12375 3.5 2.1875 C9.23374871 3.51854881 13.86978001 7.20044859 17.4296875 11.87890625 C21.2161327 18.27716949 21.83259083 24.70030828 21 32 C18.69908565 39.41883599 14.37158057 44.65516474 8 49 C2.21634129 51.89182935 -4.53506892 52.14138906 -10.65625 50.125 C-17.86903463 46.82276126 -21.90729999 42.55759001 -25.875 35.8125 C-28.02836727 28.51497758 -28.1350428 21.62160355 -24.9375 14.625 C-20.87535455 7.53615794 -15.9646667 3.79643551 -8.15625 1.5234375 C-5.45302139 0.86721896 -2.75920567 0.35374432 0 0 Z M-23 15 C-26.24250449 20.14477379 -25.54065727 26.15107135 -25 32 C-23.26770696 38.98730281 -17.82076917 44.06386435 -12 48 C-4.58495529 50.09859756 2.52819454 49.86250778 9.30859375 46.16796875 C11.11511367 44.92051042 12.56964021 43.666566 14 42 C14 41.34 14 40.68 14 40 C14.66 40 15.32 40 16 40 C19.21417707 32.90202564 20.4713638 26.11813108 18.2734375 18.47265625 C15.62165915 11.99412459 12.05505945 7.84551239 5.75 4.6875 C-6.47987266 -0.28151957 -15.66964399 4.85637222 -23 15 Z " fill="#0B46EE" transform="translate(574,624)"/>
<path d="M0 0 C0.99 0.495 0.99 0.495 2 1 C2.042721 2.66611905 2.04063832 4.33382885 2 6 C0.40388206 7.59611794 -1.26055635 7.12932322 -3.47264099 7.13371277 C-4.43875305 7.13797775 -5.40486511 7.14224274 -6.4002533 7.14663696 C-7.46885086 7.14618378 -8.53744843 7.14573059 -9.63842773 7.14526367 C-10.75702179 7.14862228 -11.87561584 7.1519809 -13.02810669 7.15544128 C-16.7466135 7.1649842 -20.46507544 7.16689605 -24.18359375 7.16796875 C-26.75570189 7.17117893 -29.32780985 7.17454282 -31.8999176 7.17805481 C-37.29957581 7.1840544 -42.69921607 7.18593651 -48.09887695 7.18530273 C-54.34673558 7.18470179 -60.59450792 7.19525529 -66.8423447 7.2110464 C-72.84432314 7.22567766 -78.84625458 7.22929136 -84.84825325 7.22869301 C-87.40603043 7.22987725 -89.96380816 7.23432363 -92.52157402 7.24202538 C-96.09184911 7.25176916 -99.6618994 7.2489695 -103.23217773 7.24291992 C-104.83203773 7.25134918 -104.83203773 7.25134918 -106.46421814 7.25994873 C-107.43315002 7.25575424 -108.40208191 7.25155975 -109.40037537 7.24723816 C-110.66773608 7.24805531 -110.66773608 7.24805531 -111.96070004 7.24888897 C-114 7 -114 7 -116 5 C-77.72 4.67 -39.44 4.34 0 4 C0 2.68 0 1.36 0 0 Z " fill="#104EF0" transform="translate(530,661)"/>
<path d="M0 0 C-0.64324219 -0.01571045 -1.28648437 -0.0314209 -1.94921875 -0.04760742 C-28.93941561 -0.61792453 -50.70351889 3.47808177 -72 21 C-70.44347945 26.3537465 -68.0182491 31.00150947 -65.375 35.875 C-64.95476563 36.65875 -64.53453125 37.4425 -64.1015625 38.25 C-63.0718978 40.16892057 -62.03652433 42.08477603 -61 44 C-60.36835937 43.43152344 -59.73671875 42.86304688 -59.0859375 42.27734375 C-49.81769991 34.27781304 -39.66677816 27.21839273 -27 27 C-30.00759837 29.00506558 -32.60358391 29.99140635 -36 31.1875 C-44.28786931 34.32544606 -51.41555108 38.56297598 -58 44.5 C-58.99 45.325 -59.98 46.15 -61 47 C-64 46 -64 46 -65.02734375 44.31347656 C-65.32769531 43.59643555 -65.62804687 42.87939453 -65.9375 42.140625 C-66.27523437 41.35429688 -66.61296875 40.56796875 -66.9609375 39.7578125 C-67.30382812 38.93023438 -67.64671875 38.10265625 -68 37.25 C-68.6844561 35.62891976 -69.37188433 34.00909072 -70.0625 32.390625 C-70.38605469 31.62427734 -70.70960938 30.85792969 -71.04296875 30.06835938 C-72.02759486 27.80332646 -72.02759486 27.80332646 -73.875 25.171875 C-75 23 -75 23 -74.44140625 20.91796875 C-65.5842549 9.13243674 -46.85116054 0.41314241 -32.51025391 -1.74365234 C-7.30083214 -4.31804379 -7.30083214 -4.31804379 0 0 Z " fill="#0844F1" transform="translate(582,546)"/>
<path d="M0 0 C13.41256586 1.39714228 24.84623455 8.45683183 35 17 C35.79869507 17.63252686 35.79869507 17.63252686 36.61352539 18.27783203 C41.18674443 21.99784324 44.564463 26.06037458 47.9375 30.875 C48.43056641 31.56335938 48.92363281 32.25171875 49.43164062 32.9609375 C50.62903908 34.63497029 51.81568399 36.31668647 53 38 C56.98292601 36.51891194 59.70113803 34.67475295 63 32 C63.66 32 64.32 32 65 32 C65 31.34 65 30.68 65 30 C65.99 29.46375 66.98 28.9275 68 28.375 C70.89078588 26.71132323 73.65659087 24.93330902 76.375 23 C77.04273438 22.525625 77.71046875 22.05125 78.3984375 21.5625 C80.25412345 19.75207468 80.61847249 18.52898234 81 16 C81.66 16 82.32 16 83 16 C83.495 17.98 83.495 17.98 84 20 C63.5864882 35.06326022 63.5864882 35.06326022 54 42 C53.01 41.505 53.01 41.505 52 41 C52 40.34 52 39.68 52 39 C51.34 39 50.68 39 50 39 C49.525625 38.05125 49.05125 37.1025 48.5625 36.125 C39.5569176 20.50692703 22.38349195 8.06305206 5.125 3.125 C4.34382812 2.94195313 3.56265625 2.75890625 2.7578125 2.5703125 C2.17773438 2.38210938 1.59765625 2.19390625 1 2 C0.67 1.34 0.34 0.68 0 0 Z " fill="#0A48F2" transform="translate(583,546)"/>
<path d="M0 0 C-2.64193528 1.47948376 -4.43601904 2.06228843 -7.5 2.5 C-10.97136132 3.59832419 -10.97136132 3.59832419 -12.09375 5.71875 C-13.17726549 8.44622003 -14.0797993 11.21291729 -15 14 C-16.09551858 16.88662717 -17.2393713 19.75396016 -18.375 22.625 C-20.82164853 28.90805559 -23.23266574 35.20376799 -25.58056641 41.52441406 C-27.12763363 45.68873098 -28.70584802 49.83962106 -30.3046875 53.984375 C-30.7083252 55.03931152 -31.11196289 56.09424805 -31.52783203 57.18115234 C-32.32209621 59.25677441 -33.1222314 61.33016273 -33.92919922 63.40087891 C-36.26680319 69.53951476 -37.94944694 75.51327998 -39 82 C-39.66 81.34 -40.32 80.68 -41 80 C-40.65589895 74.85083044 -39.20928046 70.28504116 -37.375 65.50390625 C-37.1120665 64.80143768 -36.849133 64.09896912 -36.57823181 63.37521362 C-35.72549334 61.10173417 -34.86289024 58.83214346 -34 56.5625 C-33.40763703 54.98925731 -32.81592626 53.4157689 -32.22485352 51.84204102 C-31.04301081 48.69832606 -29.85742003 45.55606783 -28.66845703 42.41503906 C-27.19392007 38.51765033 -25.73264009 34.61555201 -24.27734375 30.7109375 C-19.97666914 19.17927757 -19.97666914 19.17927757 -18 14 C-17.65533691 13.08371826 -17.31067383 12.16743652 -16.95556641 11.22338867 C-16.43808838 9.87917847 -16.43808838 9.87917847 -15.91015625 8.5078125 C-15.60343994 7.70359863 -15.29672363 6.89938477 -14.98071289 6.07080078 C-13.23685171 2.38859252 -10.67868886 0.68196735 -7 -0.8125 C-4.50443495 -1.04645922 -2.4202804 -0.6050701 0 0 Z " fill="#0A43E8" transform="translate(492,275)"/>
<path d="M0 0 C10.59000096 2.4259033 19.01047578 9.50399104 25.3125 18.1875 C33.11066383 30.94813173 35.52012448 45.07869427 32.765625 59.6953125 C31.91529538 62.25497819 30.72441563 63.94396597 29 66 C29.16757812 64.70707031 29.33515625 63.41414063 29.5078125 62.08203125 C31.61654642 44.63032419 30.7138659 29.92139433 19.98046875 15.3203125 C14.51536288 8.9174074 7.41298568 4.80287918 0 1 C0 0.67 0 0.34 0 0 Z " fill="#0847F2" transform="translate(692,360)"/>
<path d="M0 0 C18.320205 13.64270585 30.52221783 43.00624796 34 65 C34.19544276 68.35362008 34.20026499 71.6474157 34 75 C33.67 75 33.34 75 33 75 C32.81824219 73.96101563 32.63648438 72.92203125 32.44921875 71.8515625 C28.11874969 47.59394174 18.49471231 21.75155302 1.28515625 3.55859375 C0 2 0 2 0 0 Z " fill="#0841EC" transform="translate(773,312)"/>
<path d="M0 0 C-1.19882812 0.54527344 -1.19882812 0.54527344 -2.421875 1.1015625 C-5.35931677 2.44616613 -8.29042083 3.80343536 -11.21728516 5.17089844 C-12.82174061 5.91709547 -14.4320155 6.65074902 -16.04296875 7.3828125 C-24.41115107 11.33539524 -31.62224394 16.47619037 -39 22 C-39.7940625 22.59425781 -40.588125 23.18851562 -41.40625 23.80078125 C-41.9321875 24.19652344 -42.458125 24.59226562 -43 25 C-42.30842817 30.20654794 -39.84802343 34.39475336 -37.3515625 38.91601562 C-34.91344208 43.5374529 -34.91344208 43.5374529 -35.41259766 46.20483398 C-35.60644043 46.79723877 -35.8002832 47.38964355 -36 48 C-37.67977118 44.75661202 -39.34147432 41.50429633 -41 38.25 C-41.47695313 37.32960938 -41.95390625 36.40921875 -42.4453125 35.4609375 C-42.89648438 34.57148437 -43.34765625 33.68203125 -43.8125 32.765625 C-44.23144531 31.94868164 -44.65039062 31.13173828 -45.08203125 30.29003906 C-46 28 -46 28 -46 24 C-43.82746031 22.0404544 -41.76146359 20.41002209 -39.375 18.75 C-38.69928955 18.26837402 -38.0235791 17.78674805 -37.32739258 17.29052734 C-8.58494302 -2.86164767 -8.58494302 -2.86164767 0 0 Z " fill="#0743F0" transform="translate(527,488)"/>
<path d="M0 0 C5.02567195 0.55927107 9.10641951 2.22047257 13.5625 4.5 C14.26358887 4.85819824 14.96467773 5.21639648 15.68701172 5.58544922 C31.47444697 13.83903014 47.31100481 26.05524594 56 42 C56.66796875 44.2734375 56.66796875 44.2734375 57 46 C51.42857143 40.85714286 51.42857143 40.85714286 51 37 C50.34 37 49.68 37 49 37 C47.77842417 35.56584602 46.62332463 34.07484484 45.5 32.5625 C33.70301258 17.55199629 17.42974201 8.19924127 0 1 C0 0.67 0 0.34 0 0 Z " fill="#0645F3" transform="translate(607,515)"/>
<path d="M0 0 C2.8499311 1.48868352 5.50130461 3.2190876 8.09765625 5.11328125 C9.89052646 6.18105473 9.89052646 6.18105473 11.95703125 5.8359375 C14.23564569 4.87103715 15.39489121 3.7706972 17.046875 1.94140625 C18.5546875 0.28125 18.5546875 0.28125 19.921875 -0.99609375 C20.581875 -0.99609375 21.241875 -0.99609375 21.921875 -0.99609375 C19.931451 3.50442161 17.04501606 6.35717378 12.921875 9.00390625 C8.64783155 9.33267882 5.55229255 6.52074905 2.0859375 4.28125 C-6.41727732 -0.73779557 -15.13392997 -1.1363883 -24.578125 1.19140625 C-30.07836332 2.82343132 -35.05964992 5.24973229 -40.078125 8.00390625 C-39.03505564 5.10923447 -38.28773779 4.12560632 -35.58203125 2.5546875 C-34.61136719 2.14605469 -33.64070312 1.73742187 -32.640625 1.31640625 C-31.67253906 0.90003906 -30.70445312 0.48367188 -29.70703125 0.0546875 C-20.98597588 -3.43114295 -8.82707528 -3.54109415 0 0 Z " fill="#0845F4" transform="translate(585.078125,608.99609375)"/>
<path d="M0 0 C5.52793373 0.5643702 10.13994636 1.97370399 15.25 4.125 C15.99725342 4.43775879 16.74450684 4.75051758 17.5144043 5.07275391 C23.79275883 7.77537928 29.44488952 11.00494284 35 15 C36.04285156 15.74765625 37.08570313 16.4953125 38.16015625 17.265625 C51.61164698 27.13767895 51.61164698 27.13767895 54 33 C51.08107691 31.69713304 49.24033488 30.37832246 47.125 28 C35.27806667 15.90153943 19.32264093 7.44420613 3.16015625 2.7890625 C1 2 1 2 0 0 Z " fill="#0947EF" transform="translate(719,279)"/>
<path d="M0 0 C0.66 0 1.32 0 2 0 C-1.08299518 12.98103235 -11.13359899 22.49374745 -22.1875 29.3125 C-30.53882339 34.23694756 -30.53882339 34.23694756 -34.3125 33.625 C-34.869375 33.41875 -35.42625 33.2125 -36 33 C-34.96101562 32.52691406 -33.92203125 32.05382812 -32.8515625 31.56640625 C-17.68702778 24.45928217 -7.12640116 15.34917173 0 0 Z " fill="#0746F3" transform="translate(719,427)"/>
<path d="M0 0 C11.38130735 0.59901618 20.42327385 10.42327385 28 18 C28.90026985 19.35858905 29.77332804 20.73542997 30.625 22.125 C31.07101562 22.84945312 31.51703125 23.57390625 31.9765625 24.3203125 C32.31429687 24.87460937 32.65203125 25.42890625 33 26 C31.68 27.65 30.36 29.3 29 31 C28.34 30.67 27.68 30.34 27 30 C27.66 29.34 28.32 28.68 29 28 C28.54704475 22.12121913 24.94727319 19.02421809 21 15 C20.41089844 14.39800781 19.82179688 13.79601562 19.21484375 13.17578125 C13.55133683 7.82490953 6.91092528 4.46599759 0 1 C0 0.67 0 0.34 0 0 Z " fill="#094AF3" transform="translate(582,575)"/>
<path d="M0 0 C0.495 0.99 0.495 0.99 1 2 C-14.51 2 -30.02 2 -46 2 C-47.23584048 8.97564662 -47.23584048 8.97564662 -44 14 C-44 14.66 -44 15.32 -44 16 C-44.99 16 -45.98 16 -47 16 C-49.38536438 11.82561234 -50.6445541 8.83415572 -50 4 C-48.40134725 1.86142368 -47.50288942 1.09347771 -44.85493469 0.60127258 C-44.02664658 0.59016953 -43.19835846 0.57906647 -42.3449707 0.56762695 C-41.40422195 0.54783279 -40.46347321 0.52803864 -39.49421692 0.50764465 C-37.97534126 0.49805977 -37.97534126 0.49805977 -36.42578125 0.48828125 C-34.86732735 0.46135445 -34.86732735 0.46135445 -33.27738953 0.43388367 C-29.95580109 0.37965957 -26.63435734 0.34584572 -23.3125 0.3125 C-21.06182877 0.27933766 -18.81117666 0.24484903 -16.56054688 0.20898438 C-11.04049432 0.12392632 -5.52042331 0.05562777 0 0 Z " fill="#171F3E" transform="translate(296,273)"/>
<path d="M0 0 C0.66 0 1.32 0 2 0 C0.85242546 2.71244891 -0.42541497 4.49258575 -2.375 6.75 C-9.19756246 14.73984453 -11.22787777 24.17023579 -11.625 34.4375 C-11.66367187 35.26443359 -11.70234375 36.09136719 -11.7421875 36.94335938 C-11.83553092 38.96191073 -11.91880961 40.98092331 -12 43 C-14.8708851 40.1291149 -14.30029698 38.06915677 -14.3125 34.0625 C-14.15465793 20.39695651 -9.7040186 9.7040186 0 0 Z " fill="#0946F1" transform="translate(542,617)"/>
<path d="M0 0 C0.99 0.33 1.98 0.66 3 1 C3.70211894 2.65204456 4.36971413 4.31923769 5 6 C5.66 6.33 6.32 6.66 7 7 C8.7358354 9.94916351 10.11124106 13.09010532 11.5625 16.1875 C12.1802832 17.46463867 12.1802832 17.46463867 12.81054688 18.76757812 C14.89424226 23.17710043 16.54099037 27.07973891 17 32 C14.05937271 29.44962419 12.61592418 26.59069005 10.8984375 23.125 C10.32609375 21.97515625 9.75375 20.8253125 9.1640625 19.640625 C8.87047852 19.04314453 8.57689453 18.44566406 8.27441406 17.83007812 C7.37665303 16.0033635 6.47039916 14.18106877 5.5625 12.359375 C1.15459389 3.46378168 1.15459389 3.46378168 0 0 Z " fill="#0D1A3F" transform="translate(388,307)"/>
<path d="M0 0 C0.66 0 1.32 0 2 0 C2 0.66 2 1.32 2 2 C2.99 2.33 3.98 2.66 5 3 C5 4.32 5 5.64 5 7 C5.73671311 9.10204013 5.73671311 9.10204013 6.8125 11.125 C7.14894531 11.80820312 7.48539062 12.49140625 7.83203125 13.1953125 C9.02839414 15.30575323 9.02839414 15.30575323 12 17 C12.73046875 19.1640625 12.73046875 19.1640625 13.1875 21.625 C13.34605469 22.44226563 13.50460937 23.25953125 13.66796875 24.1015625 C13.77753906 24.72804688 13.88710938 25.35453125 14 26 C11 25 11 25 9.3125 21.9375 C8.879375 20.968125 8.44625 19.99875 8 19 C7.34 19 6.68 19 6 19 C5.9071875 17.824375 5.9071875 17.824375 5.8125 16.625 C4.86247663 12.3864342 3.11883289 9.06900909 1.05859375 5.26953125 C0 3 0 3 0 0 Z " fill="#0D162C" transform="translate(251,290)"/>
<path d="M0 0 C3.50222465 4.01933164 5.76917472 8.17851865 8.0625 12.9375 C8.57006836 13.97293945 8.57006836 13.97293945 9.08789062 15.02929688 C9.75067827 16.3817939 10.4091923 17.7363953 11.06298828 19.09326172 C11.938637 20.87513157 12.87166222 22.62848341 13.80859375 24.37890625 C14.39833984 25.67634766 14.39833984 25.67634766 15 27 C14.67 27.66 14.34 28.32 14 29 C9.7769828 25.22615757 7.79314943 20.05900808 5.3125 15.0625 C4.80138672 14.06025391 4.29027344 13.05800781 3.76367188 12.02539062 C3.28091797 11.05923828 2.79816406 10.09308594 2.30078125 9.09765625 C1.85903564 8.21601807 1.41729004 7.33437988 0.9621582 6.42602539 C0 4 0 4 0 0 Z " fill="#0C142E" transform="translate(363,506)"/>
<path d="M0 0 C0.66 0 1.32 0 2 0 C2.51949219 1.03898437 3.03898437 2.07796875 3.57421875 3.1484375 C4.07804077 4.15559814 4.07804077 4.15559814 4.59204102 5.18310547 C5.32403939 6.64775476 6.05499198 8.11292717 6.78491211 9.57861328 C8.39320811 12.80521913 10.01169865 16.02241788 11.6796875 19.21875 C12.13601563 20.0953125 12.59234375 20.971875 13.0625 21.875 C13.46597656 22.63554687 13.86945313 23.39609375 14.28515625 24.1796875 C14.63900391 25.08074219 14.63900391 25.08074219 15 26 C14.67 26.66 14.34 27.32 14 28 C11.33766608 25.62523525 9.89548716 23.17728916 8.30078125 20 C7.81416016 19.030625 7.32753906 18.06125 6.82617188 17.0625 C6.32666016 16.051875 5.82714844 15.04125 5.3125 14 C4.80138672 12.989375 4.29027344 11.97875 3.76367188 10.9375 C3.28091797 9.968125 2.79816406 8.99875 2.30078125 8 C1.85903564 7.113125 1.41729004 6.22625 0.9621582 5.3125 C0 3 0 3 0 0 Z " fill="#0C142B" transform="translate(321,426)"/>
<path d="M0 0 C4.09004941 4.56897791 6.60992433 9.73957409 9.3125 15.1875 C9.77978516 16.10208984 10.24707031 17.01667969 10.72851562 17.95898438 C11.16486328 18.83232422 11.60121094 19.70566406 12.05078125 20.60546875 C12.64886597 21.79885864 12.64886597 21.79885864 13.2590332 23.01635742 C13.50355225 23.67095947 13.74807129 24.32556152 14 25 C13.67 25.66 13.34 26.32 13 27 C9.03934378 23.41606984 7.15467462 18.78360234 4.8125 14.0625 C4.11737305 12.7022168 4.11737305 12.7022168 3.40820312 11.31445312 C2.97056641 10.43853516 2.53292969 9.56261719 2.08203125 8.66015625 C1.48225464 7.46338257 1.48225464 7.46338257 0.87036133 6.24243164 C0 4 0 4 0 0 Z " fill="#0B1227" transform="translate(270,326)"/>
<path d="M0 0 C0.99 0 1.98 0 3 0 C3.23074219 0.60585938 3.46148437 1.21171875 3.69921875 1.8359375 C5.86947393 7.41169191 8.30279828 12.70196044 11.14453125 17.96875 C11.42683594 18.6390625 11.70914062 19.309375 12 20 C11.67 20.66 11.34 21.32 11 22 C8.49962266 19.82575883 7.56371414 18.26954202 7 15 C5.68 15.33 4.36 15.66 3 16 C3 15.34 3 14.68 3 14 C3.66 13.67 4.32 13.34 5 13 C4.6390625 12.31292969 4.278125 11.62585938 3.90625 10.91796875 C3.21015625 9.56638672 3.21015625 9.56638672 2.5 8.1875 C1.80390625 6.84751953 1.80390625 6.84751953 1.09375 5.48046875 C0 3 0 3 0 0 Z " fill="#0D162D" transform="translate(309,403)"/>
<path d="M0 0 C0.33 0.66 0.66 1.32 1 2 C0.22265625 3.9453125 0.22265625 3.9453125 -0.9375 6.125 C-1.31777344 6.84945312 -1.69804687 7.57390625 -2.08984375 8.3203125 C-2.39019531 8.87460937 -2.69054687 9.42890625 -3 10 C-6.10652645 9.6641593 -7.60414303 9.40950721 -9.8125 7.125 C-11 5 -11 5 -11 2 C-10.34 2 -9.68 2 -9 2 C-9 3.32 -9 4.64 -9 6 C-7.05000871 5.80528889 -7.05000871 5.80528889 -5 5 C-4.30062468 3.68352881 -3.63270867 2.34977849 -3 1 C-2.01 0.67 -1.02 0.34 0 0 Z " fill="#0F2558" transform="translate(414,583)"/>
<path d="M0 0 C4.01634066 3.46330053 6.02328912 7.44613754 8.3125 12.125 C8.68439453 12.85332031 9.05628906 13.58164062 9.43945312 14.33203125 C10.36110629 16.18906799 11.18865541 18.09218713 12 20 C11.67 20.66 11.34 21.32 11 22 C7.96250922 19.97500615 7.42131509 19.32050512 5.95703125 16.19140625 C5.60576172 15.44439453 5.25449219 14.69738281 4.89257812 13.92773438 C4.53615234 13.14720703 4.17972656 12.36667969 3.8125 11.5625 C3.44447266 10.78583984 3.07644531 10.00917969 2.69726562 9.20898438 C0 3.39910424 0 3.39910424 0 0 Z " fill="#0C142C" transform="translate(336,455)"/>
<path d="M0 0 C0.99 0.33 1.98 0.66 3 1 C2.6596875 2.0828125 2.6596875 2.0828125 2.3125 3.1875 C1.91395503 6.77440471 3.02300414 8.07404613 5 11 C5 11.66 5 12.32 5 13 C4.01 13 3.02 13 2 13 C-0.40385693 8.79325038 -1.45226612 5.86186074 -1 1 C-0.67 0.67 -0.34 0.34 0 0 Z " fill="#0F172D" transform="translate(247,276)"/>
<path d="M0 0 C3.57026711 0.59237616 5.45816451 1.97180604 8.125 4.375 C8.80820312 4.98085938 9.49140625 5.58671875 10.1953125 6.2109375 C12 8 12 8 14 11 C11 11 11 11 8.6875 8.8125 C7.800625 7.884375 6.91375 6.95625 6 6 C4.90731761 5.06967372 3.80321685 4.15257283 2.6875 3.25 C1.800625 2.5075 0.91375 1.765 0 1 C0 0.67 0 0.34 0 0 Z " fill="#0B1538" transform="translate(367,285)"/>
<path d="M0 0 C0.33 0 0.66 0 1 0 C3.00602647 7.18826151 0.4002564 13.14948282 -2 20 C-3.0546875 18.171875 -3.0546875 18.171875 -4 16 C-3.125 13.25 -3.125 13.25 -2 11 C-1.34 11 -0.68 11 0 11 C0 7.37 0 3.74 0 0 Z " fill="#16316A" transform="translate(460,449)"/>
<path d="M0 0 C1.32 0 2.64 0 4 0 C4 0.66 4 1.32 4 2 C4.66 2.33 5.32 2.66 6 3 C5.814375 3.556875 5.62875 4.11375 5.4375 4.6875 C4.92448835 7.399133 5.3359276 9.34371039 6 12 C3.25207517 8.59780735 0 4.51535412 0 0 Z " fill="#0A2358" transform="translate(442,418)"/>
<path d="M0 0 C2.35716404 2.15454249 3.78966144 4.19719874 5.1875 7.0625 C5.53167969 7.75472656 5.87585938 8.44695312 6.23046875 9.16015625 C7 11 7 11 7 13 C6.34 13 5.68 13 5 13 C2 8.61538462 2 8.61538462 2 6 C1.34 5.67 0.68 5.34 0 5 C0 3.35 0 1.7 0 0 Z " fill="#0D152A" transform="translate(284,354)"/>
<path d="M0 0 C-5.02416822 3.34944548 -9.09951257 3.09834146 -15 3 C-14.67 2.34 -14.34 1.68 -14 1 C-9.45906828 -0.41904116 -4.7056901 -0.09226843 0 0 Z " fill="#0545F4" transform="translate(554,510)"/>
<path d="M0 0 C0.66 0 1.32 0 2 0 C3.65 3.63 5.3 7.26 7 11 C6.01 11 5.02 11 4 11 C3.32591692 9.73308493 2.66099503 8.46129251 2 7.1875 C1.62875 6.47980469 1.2575 5.77210938 0.875 5.04296875 C0 3 0 3 0 0 Z " fill="#0B1328" transform="translate(293,372)"/>
<path d="M0 0 C3.29456702 1.09818901 4.45501927 1.91003854 6 5 C5.0625 7.125 5.0625 7.125 4 9 C1.9754262 7.06745228 0.57894208 5.36841312 -1 3 C-0.67 2.01 -0.34 1.02 0 0 Z " fill="#11203B" transform="translate(265,319)"/>
<path d="M0 0 C-1.55603771 3.81936528 -3.95604931 6.26044438 -7 9 C-7.66 9 -8.32 9 -9 9 C-7.45665977 5.21180126 -4.44676575 0 0 0 Z " fill="#0E4BF4" transform="translate(607,608)"/>
<path d="M0 0 C2.97246802 2.54782974 4.41535288 5.45340883 6 9 C6 9.66 6 10.32 6 11 C3 10 3 10 1.3125 7.1875 C0 4 0 4 0 0 Z " fill="#0A1331" transform="translate(382,543)"/>
<path d="M0 0 C-2.58926331 2.58926331 -4.02705279 2.37398043 -7.625 2.625 C-8.62789062 2.69976562 -9.63078125 2.77453125 -10.6640625 2.8515625 C-11.82035156 2.92503906 -11.82035156 2.92503906 -13 3 C-13 2.34 -13 1.68 -13 1 C-8.59085217 -0.10228696 -4.51617599 -0.07654536 0 0 Z " fill="#0747F3" transform="translate(548,482)"/>
<path d="M0 0 C3.32851213 2.98418329 5.3205729 5.84562769 7 10 C6.67 10.99 6.34 11.98 6 13 C2.57068046 9.2440786 1.43570917 4.76533255 0 0 Z " fill="#081339" transform="translate(446,423)"/>
<path d="M0 0 C1.32 0 2.64 0 4 0 C5.125 2.8125 5.125 2.8125 6 6 C5.01 7.485 5.01 7.485 4 9 C0 2.25 0 2.25 0 0 Z " fill="#0A2154" transform="translate(409,351)"/>
<path d="M0 0 C6 7.71428571 6 7.71428571 6 12 C5.34 12 4.68 12 4 12 C3.32332002 10.75539217 2.65905281 9.50403104 2 8.25 C1.62875 7.55390625 1.2575 6.8578125 0.875 6.140625 C0 4 0 4 0 0 Z " fill="#0A1129" transform="translate(351,483)"/>
<path d="M0 0 C2.64465038 3.1254959 3.84414715 6.08788267 5 10 C2 9 2 9 0.25 5.5625 C-0.1625 4.386875 -0.575 3.21125 -1 2 C-0.67 1.34 -0.34 0.68 0 0 Z " fill="#0F2350" transform="translate(405,337)"/>
<path d="M0 0 C0.99 0.33 1.98 0.66 3 1 C0.36 2.98 -2.28 4.96 -5 7 C-5 6.01 -5 5.02 -5 4 C-2.6875 1.75 -2.6875 1.75 0 0 Z " fill="#0747F5" transform="translate(501,529)"/>
<path d="M0 0 C3.0916909 2.52956528 3.90931332 5.22454612 5 9 C2 8 2 8 0.8125 6.1875 C0 4 0 4 0 0 Z " fill="#0C122A" transform="translate(373,526)"/>
<path d="M0 0 C3 1 3 1 4.25 2.8125 C5.11637742 5.33943414 4.88492145 6.52221994 4 9 C0 2.25 0 2.25 0 0 Z " fill="#111E3B" transform="translate(346,476)"/>
<path d="M0 0 C2.0245738 1.93254772 3.42105792 3.63158688 5 6 C5 6.99 5 7.98 5 9 C4.34 9 3.68 9 3 9 C0 3.375 0 3.375 0 0 Z " fill="#090F21" transform="translate(304,393)"/>
<path d="M0 0 C0.99 0.33 1.98 0.66 3 1 C2.01 1 1.02 1 0 1 C0 0.67 0 0.34 0 0 Z " fill="#152A51" transform="translate(339,469)"/>
<path d="M0 0 C0.33 0.66 0.66 1.32 1 2 C0.34 1.67 -0.32 1.34 -1 1 C-0.67 0.67 -0.34 0.34 0 0 Z " fill="#2368E9" transform="translate(562,674)"/>
<path d="M0 0 C3 1 3 1 3 1 Z " fill="#216CF2" transform="translate(431,669)"/>
<path d="M0 0 C0.99 0.495 0.99 0.495 2 1 C1.01 1.495 1.01 1.495 0 2 C0 1.34 0 0.68 0 0 Z " fill="#1D6CF3" transform="translate(790,481)"/>
<path d="M0 0 C3 1 3 1 3 1 Z " fill="#156EFD" transform="translate(700,448)"/>
<path d="M0 0 C2 1 2 1 2 1 Z " fill="#2269EE" transform="translate(528,669)"/>
<path d="" fill="#2067EE" transform="translate(0,0)"/>
<path d="" fill="#1F6BF4" transform="translate(0,0)"/>
<path d="" fill="#1E67EC" transform="translate(0,0)"/>
<path d="" fill="#1769F9" transform="translate(0,0)"/>
<path d="" fill="#156CFC" transform="translate(0,0)"/>
<path d="M0 0 C2 1 2 1 2 1 Z " fill="#146BFA" transform="translate(537,576)"/>
<path d="M0 0 C2 1 2 1 2 1 Z " fill="#156AFD" transform="translate(575,547)"/>
<path d="M0 0 C2 1 2 1 2 1 Z " fill="#1C6DF9" transform="translate(692,543)"/>
<path d="M0 0 C2 1 2 1 2 1 Z " fill="#1B70FA" transform="translate(688,543)"/>
<path d="M0 0 C2 1 2 1 2 1 Z " fill="#146FFC" transform="translate(605,512)"/>
<path d="M0 0 C2 1 2 1 2 1 Z " fill="#182E54" transform="translate(353,496)"/>
<path d="" fill="#194397" transform="translate(0,0)"/>
<path d="M0 0 C2 1 2 1 2 1 Z " fill="#172C51" transform="translate(336,469)"/>
<path d="" fill="#14294F" transform="translate(0,0)"/>
<path d="M0 0 C2 1 2 1 2 1 Z " fill="#186DFC" transform="translate(565,441)"/>
<path d="" fill="#17284E" transform="translate(0,0)"/>
<path d="" fill="#152A4E" transform="translate(0,0)"/>
<path d="" fill="#16294B" transform="translate(0,0)"/>
<path d="" fill="#17294B" transform="translate(0,0)"/>
<path d="M0 0 C2 1 2 1 2 1 Z " fill="#223657" transform="translate(305,272)"/>
<path d="" fill="#3F403F" transform="translate(0,0)"/>
<path d="" fill="#424342" transform="translate(0,0)"/>
<path d="" fill="#2766E6" transform="translate(0,0)"/>
<path d="" fill="#256AE5" transform="translate(0,0)"/>
<path d="" fill="#246CEB" transform="translate(0,0)"/>
<path d="" fill="#226EF7" transform="translate(0,0)"/>
<path d="" fill="#236DF5" transform="translate(0,0)"/>
<path d="" fill="#206BF9" transform="translate(0,0)"/>
<path d="" fill="#236DF6" transform="translate(0,0)"/>
<path d="" fill="#216DF5" transform="translate(0,0)"/>
<path d="" fill="#226DF4" transform="translate(0,0)"/>
<path d="" fill="#246CF2" transform="translate(0,0)"/>
<path d="" fill="#2B67DA" transform="translate(0,0)"/>
<path d="" fill="#2C68DC" transform="translate(0,0)"/>
<path d="" fill="#1969F4" transform="translate(0,0)"/>
<path d="" fill="#1867F6" transform="translate(0,0)"/>
<path d="" fill="#196AFA" transform="translate(0,0)"/>
<path d="" fill="#216EF3" transform="translate(0,0)"/>
<path d="" fill="#1F6BF6" transform="translate(0,0)"/>
<path d="" fill="#1E68EF" transform="translate(0,0)"/>
<path d="" fill="#186DFD" transform="translate(0,0)"/>
<path d="" fill="#1F67EB" transform="translate(0,0)"/>
<path d="" fill="#1E67E8" transform="translate(0,0)"/>
<path d="" fill="#166DFB" transform="translate(0,0)"/>
<path d="" fill="#1668FF" transform="translate(0,0)"/>
<path d="" fill="#1768FF" transform="translate(0,0)"/>
<path d="" fill="#1C65F0" transform="translate(0,0)"/>
<path d="" fill="#214790" transform="translate(0,0)"/>
<path d="" fill="#204790" transform="translate(0,0)"/>
<path d="" fill="#216BF4" transform="translate(0,0)"/>
<path d="" fill="#224685" transform="translate(0,0)"/>
<path d="" fill="#146DFD" transform="translate(0,0)"/>
<path d="" fill="#216FF8" transform="translate(0,0)"/>
<path d="" fill="#1F4080" transform="translate(0,0)"/>
<path d="" fill="#176CFE" transform="translate(0,0)"/>
<path d="" fill="#1F489D" transform="translate(0,0)"/>
<path d="" fill="#216DF6" transform="translate(0,0)"/>
<path d="" fill="#186CFD" transform="translate(0,0)"/>
<path d="" fill="#1D3A72" transform="translate(0,0)"/>
<path d="" fill="#1770FA" transform="translate(0,0)"/>
<path d="" fill="#176BFC" transform="translate(0,0)"/>
<path d="" fill="#186AFB" transform="translate(0,0)"/>
<path d="" fill="#166FFD" transform="translate(0,0)"/>
<path d="" fill="#1D4797" transform="translate(0,0)"/>
<path d="" fill="#206FF5" transform="translate(0,0)"/>
<path d="" fill="#193368" transform="translate(0,0)"/>
<path d="" fill="#216DF4" transform="translate(0,0)"/>
<path d="" fill="#1D376B" transform="translate(0,0)"/>
<path d="" fill="#186CFF" transform="translate(0,0)"/>
<path d="" fill="#195DDF" transform="translate(0,0)"/>
<path d="" fill="#1858CF" transform="translate(0,0)"/>
<path d="" fill="#146BFD" transform="translate(0,0)"/>
<path d="" fill="#166AFE" transform="translate(0,0)"/>
<path d="" fill="#126AFF" transform="translate(0,0)"/>
<path d="" fill="#1A3365" transform="translate(0,0)"/>
<path d="" fill="#19315F" transform="translate(0,0)"/>
<path d="" fill="#1C6DF8" transform="translate(0,0)"/>
<path d="" fill="#1E6BFA" transform="translate(0,0)"/>
<path d="" fill="#1963E7" transform="translate(0,0)"/>
<path d="" fill="#206DF5" transform="translate(0,0)"/>
<path d="" fill="#166FFF" transform="translate(0,0)"/>
<path d="" fill="#1A4395" transform="translate(0,0)"/>
<path d="" fill="#1D4692" transform="translate(0,0)"/>
<path d="" fill="#19305D" transform="translate(0,0)"/>
<path d="" fill="#166BF9" transform="translate(0,0)"/>
<path d="" fill="#19305A" transform="translate(0,0)"/>
<path d="" fill="#186FFB" transform="translate(0,0)"/>
<path d="" fill="#176FFD" transform="translate(0,0)"/>
<path d="" fill="#146DFE" transform="translate(0,0)"/>
<path d="" fill="#1A6CFF" transform="translate(0,0)"/>
<path d="" fill="#172F57" transform="translate(0,0)"/>
<path d="" fill="#162A58" transform="translate(0,0)"/>
<path d="" fill="#182D58" transform="translate(0,0)"/>
<path d="" fill="#152853" transform="translate(0,0)"/>
<path d="" fill="#1E6EF7" transform="translate(0,0)"/>
<path d="" fill="#146BFE" transform="translate(0,0)"/>
<path d="" fill="#176CFF" transform="translate(0,0)"/>
<path d="" fill="#182B54" transform="translate(0,0)"/>
<path d="" fill="#1C4598" transform="translate(0,0)"/>
<path d="" fill="#166CFE" transform="translate(0,0)"/>
<path d="" fill="#166CFD" transform="translate(0,0)"/>
<path d="" fill="#166AFE" transform="translate(0,0)"/>
<path d="" fill="#156BFD" transform="translate(0,0)"/>
<path d="" fill="#1269FF" transform="translate(0,0)"/>
<path d="" fill="#176AFF" transform="translate(0,0)"/>
<path d="" fill="#182E54" transform="translate(0,0)"/>
<path d="" fill="#192D54" transform="translate(0,0)"/>
<path d="" fill="#1E6EF9" transform="translate(0,0)"/>
<path d="" fill="#1C69EE" transform="translate(0,0)"/>
<path d="" fill="#1C6CF3" transform="translate(0,0)"/>
<path d="" fill="#152C51" transform="translate(0,0)"/>
<path d="" fill="#1677FB" transform="translate(0,0)"/>
<path d="" fill="#1F6DF2" transform="translate(0,0)"/>
<path d="" fill="#1B70F8" transform="translate(0,0)"/>
<path d="" fill="#172B4F" transform="translate(0,0)"/>
<path d="" fill="#1D6CF5" transform="translate(0,0)"/>
<path d="" fill="#1D6BF7" transform="translate(0,0)"/>
<path d="" fill="#166DF9" transform="translate(0,0)"/>
<path d="" fill="#1D428C" transform="translate(0,0)"/>
<path d="" fill="#152A4C" transform="translate(0,0)"/>
<path d="" fill="#13294E" transform="translate(0,0)"/>
<path d="" fill="#14274B" transform="translate(0,0)"/>
<path d="" fill="#15294D" transform="translate(0,0)"/>
<path d="" fill="#16284D" transform="translate(0,0)"/>
<path d="" fill="#156EFA" transform="translate(0,0)"/>
<path d="" fill="#192A49" transform="translate(0,0)"/>
<path d="" fill="#14284C" transform="translate(0,0)"/>
<path d="" fill="#16284D" transform="translate(0,0)"/>
<path d="" fill="#152949" transform="translate(0,0)"/>
<path d="" fill="#142947" transform="translate(0,0)"/>
<path d="" fill="#182B4F" transform="translate(0,0)"/>
<path d="" fill="#1E6BF5" transform="translate(0,0)"/>
<path d="" fill="#172B4C" transform="translate(0,0)"/>
<path d="" fill="#182A4D" transform="translate(0,0)"/>
<path d="" fill="#17294E" transform="translate(0,0)"/>
<path d="" fill="#1E3D79" transform="translate(0,0)"/>
<path d="" fill="#166BFF" transform="translate(0,0)"/>
<path d="" fill="#156EFD" transform="translate(0,0)"/>
<path d="" fill="#183875" transform="translate(0,0)"/>
<path d="" fill="#1B2D4E" transform="translate(0,0)"/>
<path d="" fill="#1B5DDA" transform="translate(0,0)"/>
<path d="" fill="#1F5DD7" transform="translate(0,0)"/>
<path d="" fill="#1E5ED4" transform="translate(0,0)"/>
<path d="" fill="#1A3C77" transform="translate(0,0)"/>
<path d="" fill="#1D61D8" transform="translate(0,0)"/>
<path d="" fill="#1E3E7E" transform="translate(0,0)"/>
<path d="" fill="#192C4C" transform="translate(0,0)"/>
<path d="" fill="#1B3B74" transform="translate(0,0)"/>
<path d="" fill="#1C3B72" transform="translate(0,0)"/>
<path d="" fill="#1F3C72" transform="translate(0,0)"/>
<path d="" fill="#1B2E4D" transform="translate(0,0)"/>
<path d="" fill="#1F3B71" transform="translate(0,0)"/>
<path d="" fill="#1767F6" transform="translate(0,0)"/>
<path d="" fill="#1A2B49" transform="translate(0,0)"/>
<path d="" fill="#1E2C4B" transform="translate(0,0)"/>
<path d="" fill="#1D2E50" transform="translate(0,0)"/>
<path d="" fill="#206AF1" transform="translate(0,0)"/>
<path d="" fill="#1F2E4D" transform="translate(0,0)"/>
<path d="" fill="#1B6FF6" transform="translate(0,0)"/>
<path d="" fill="#1A6AF5" transform="translate(0,0)"/>
<path d="" fill="#1B72F4" transform="translate(0,0)"/>
<path d="" fill="#253A5E" transform="translate(0,0)"/>
<path d="" fill="#206BEB" transform="translate(0,0)"/>
<path d="" fill="#24395E" transform="translate(0,0)"/>
<path d="" fill="#213559" transform="translate(0,0)"/>
<path d="" fill="#233757" transform="translate(0,0)"/>
</svg>
